<svg xmlns="http://www.w3.org/2000/svg" viewBox="0 0 512 512">
  <defs>
    <linearGradient id="bgGrad" x1="0%" y1="0%" x2="100%" y2="100%">
      <stop offset="0%" style="stop-color:#0a0e27"/>
      <stop offset="100%" style="stop-color:#1a1d3a"/>
    </linearGradient>
    <linearGradient id="goldGrad" x1="0%" y1="0%" x2="100%" y2="100%">
      <stop offset="0%" style="stop-color:#ffd700"/>
      <stop offset="100%" style="stop-color:#ffb347"/>
    </linearGradient>
  </defs>

  <!-- Background -->
  <rect width="512" height="512" rx="64" fill="url(#bgGrad)"/>

  <!-- Card shape -->
  <rect x="96" y="56" width="320" height="400" rx="24" fill="url(#goldGrad)" opacity="0.9"/>

  <!-- Inner card area -->
  <rect x="116" y="76" width="280" height="280" rx="16" fill="url(#bgGrad)"/>

  <!-- Crown/Commander symbol -->
  <path d="M256 140 L216 200 L176 180 L196 240 L316 240 L336 180 L296 200 Z"
        fill="url(#goldGrad)" stroke="#0a0e27" stroke-width="4"/>

  <!-- Gem on crown -->
  <circle cx="256" cy="160" r="20" fill="#0a0e27" stroke="url(#goldGrad)" stroke-width="4"/>

  <!-- Mana symbols row -->
  <g transform="translate(136, 290)">
    <!-- White -->
    <circle cx="24" cy="24" r="20" fill="#f9faf4" stroke="#c9c5ba" stroke-width="2"/>
    <!-- Blue -->
    <circle cx="84" cy="24" r="20" fill="#0e68ab" stroke="#aae0fa" stroke-width="2"/>
    <!-- Black -->
    <circle cx="144" cy="24" r="20" fill="#150b00" stroke="#8c8270" stroke-width="2"/>
    <!-- Red -->
    <circle cx="204" cy="24" r="20" fill="#d3202a" stroke="#f9aa8f" stroke-width="2"/>
    <!-- Green -->
    <circle cx="264" cy="24" r="20" fill="#00733e" stroke="#9bd3ae" stroke-width="2"/>
  </g>

  <!-- Text area placeholder -->
  <rect x="136" y="380" width="240" height="40" rx="8" fill="url(#bgGrad)" opacity="0.8"/>
  <text x="256" y="408" font-family="Arial, sans-serif" font-size="20" font-weight="bold"
        fill="url(#goldGrad)" text-anchor="middle">COMMANDER</text>
</svg>
